# xmcd
#
# Track frame offsets:
#	150
#	23353
#	41783
#	68420
#	88683
#	106150
#	119803
#	138683
#	165483
#	184560
#	201108
#
# Disc length: 2813 seconds
#
# Revision: 1
# Processed by: cddbd v1.5PL3 Copyright (c) Steve Scherf et al.
# Submitted via: dBpowerAMP V4.0
#
DISCID=8e0afb0b
DTITLE=Robert Tree Cody - Dreams from the Grandfather
DYEAR=1900
DGENRE=Native American
TTITLE0=Earth Mother
TTITLE1=Kokopelli Wandering Song
TTITLE2=In Camps of Times Past
TTITLE3=Whispering Journeys
TTITLE4=Zuni Dawn
TTITLE5=Sky City
TTITLE6=Moonlight Dance
TTITLE7=Lakota Lullaby
TTITLE8=Love Song
TTITLE9=Buffalo's Journey
TTITLE10=Stomp Dance
EXTD=
EXTT0=
EXTT1=
EXTT2=
EXTT3=
EXTT4=
EXTT5=
EXTT6=
EXTT7=
EXTT8=
EXTT9=
EXTT10=
PLAYORDER=
